<svg fill="none" height="60" viewBox="0 0 60 60" width="60" xmlns="http://www.w3.org/2000/svg" xmlns:xlink="http://www.w3.org/1999/xlink"><linearGradient id="a"><stop offset="0" stop-color="#ff8066"/><stop offset="1" stop-color="#f53"/></linearGradient><linearGradient id="b" gradientUnits="userSpaceOnUse" x1="31.318" x2="26.6221" xlink:href="#a" y1="52.4462" y2="53.8608"/><linearGradient id="c" gradientUnits="userSpaceOnUse" x1="37.6163" x2="34.9482" xlink:href="#a" y1="3.96616" y2="8.08115"/><mask id="d" height="60" maskUnits="userSpaceOnUse" width="60" x="0" y="0"><path d="m0 0h60v60h-60z" fill="#d9d9d9"/></mask><g clip-rule="evenodd" fill-rule="evenodd"><path d="m32.6374 49.4519c10.7422 0 19.4505-8.7083 19.4505-19.4506 0-10.7422-8.7083-19.4505-19.4505-19.4505-10.7423 0-19.4506 8.7083-19.4506 19.4505 0 10.7423 8.7083 19.4506 19.4506 19.4506z" fill="#73d9af"/><path d="m16.1489 40.3248 7.0926-15.797c.3514-.7827 1.4607-.7885 1.8202-.0094l7.3331 15.8883c.3751.8128 1.3381 1.1676 2.1509.7925.8128-.3752 1.1676-1.3382.7925-2.151l-9.7253-21.0714c-.5795-1.2555-2.3639-1.2555-2.9434 0l-8.3584 18.5583c.4766 1.3368 1.0952 2.606 1.8378 3.7897z" fill="#fff"/><path d="m16.1489 40.3248 7.0926-15.797c.3514-.7827 1.4607-.7885 1.8202-.0094l7.3331 15.8883c.3751.8128 1.3381 1.1676 2.1509.7925.8128-.3752 1.1676-1.3382.7925-2.151l-9.7253-21.0714c-.5795-1.2555-2.3639-1.2555-2.9434 0l-8.3584 18.5583c.4766 1.3368 1.0952 2.606 1.8378 3.7897z" fill="#2ca271" fill-opacity=".1"/><path d="m18.3679 43.2199c-.834-.8999-1.5839-1.8789-2.2373-2.9244l10.0389-22.3187c.5795-1.2555 2.3639-1.2555 2.9434 0l9.0225 19.5488c.1635.3542.518.581.908.581h5.617c.8952 0 1.6209.7257 1.6209 1.6209s-.7257 1.6208-1.6209 1.6208h-7.2939c-.6322 0-1.2068-.3676-1.4717-.9416l-2.5578-5.5419h-11.2254zm5.1962-11.5968h8.2767l-4.1996-9.0992z" fill="#1c6647"/><path d="m51.5262 25.3397h-5.3413c-.2686 0-.5263-.1067-.7163-.2967l-2.4028-2.4028c.0691-.1671.1073-.3502.1073-.5422 0-.7833-.635-1.4183-1.4183-1.4183-.7832 0-1.4182.635-1.4182 1.4183 0 .7832.635 1.4182 1.4182 1.4182.1419 0 .279-.0208.4082-.0596l2.446 2.446c.418.418.9849.6528 1.5759.6528h5.599c-.0732-.4098-.1593-.8152-.2577-1.2157zm.5452 3.8496h-10.6556c-.2277-.4792-.7161-.8104-1.2818-.8104-.7833 0-1.4183.6349-1.4183 1.4182s.635 1.4183 1.4183 1.4183c.5657 0 1.0541-.3313 1.2818-.8104h10.668c.0028-.1348.0042-.2699.0042-.4053 0-.2714-.0056-.5416-.0166-.8104z" fill="#2ca271"/></g><path d="m50.6761 40.5752c-1.5971-.5128-3.0067.0287-4.2236.9863-2.9063 2.284-5.7519 4.6438-8.6398 6.9513-.2798.2224-.6889.4736-1.0427.4788-2.3255.0366-4.6511.0183-6.9767.0183-.198 0-.4488.0524-.5808-.0471-.2718-.1988-.652-.6776-.6625-.9366-.0079-.2407.3748-.7404.6467-.9261.1557-.1073.4303-.0497.652-.0497 1.5337-.0105 3.07.0287 4.601-.0341 1.3885-.0575 2.5658-.2904 3.2099-1.5828.8368-1.6744-.2032-3.7124-2.2332-4.0813-1.4175-.2564-2.901-.1727-4.3555-.1858-1.5733-.0131-3.0647-.2302-4.535-.8843-3.2759-1.4572-7.1325-.6776-10.3345 2.0172-6.0872 5.1226-8.94865 7.4196-8.94865 7.4196l6.98465 10.2793 3.4-2.1532c1.1087-.7012 2.3942-1.0753 3.7114-1.0779 3.6006-.0026 11.1027-.0079 14.7666 0 2.2332.0052 4.0335-.866 5.5276-2.5692 3.2151-3.6653 6.5201-7.247 9.7854-10.8678 1.0928-1.2114.8183-2.25-.755-2.7576z" fill="#fbbead"/><g mask="url(#d)"><g fill="#ff7833"><path d="m53.7001 35.727c-.4737.0111-.8795-.2968-.9056-.6871-.0261-.3902.3374-.7161.8111-.7271.4737-.0111.8795.2968.9056.6871s-.3374.7161-.8111.7271z"/><path d="m9.20364 20.8004c-.42906-.1145-.6273-.5177-.44239-.9.18491-.3822.68342-.5996 1.11248-.4851.42907.1145.62727.5178.44237.9s-.68339.5996-1.11246.4851z"/><path d="m10.8689 53.8614c-.1652.1886-.4749.2422-.6911.1195-.21616-.1227-.25753-.3755-.0923-.5642.1652-.1886.4749-.2422.6911-.1195s.2575.3755.0923.5642z"/><path d="m51.5871 51.3939c-.2497.0535-.5271-.0835-.619-.3058-.0918-.2222.0364-.4462.2862-.4997.2498-.0536.5272.0834.619.3057.0919.2223-.0364.4462-.2862.4998z"/><path d="m54.5529 6.45862c-.2687-.01206-.466-.20424-.4404-.42888s.2645-.39724.5332-.38518c.2686.01206.4659.20424.4403.42888s-.2645.39724-.5331.38518z"/><path d="m8.50551 40.8018c-.32741-.1051-.46248-.4261-.30143-.7163.16105-.2903.55764-.4406.88505-.3355.32741.105.46249.426.30144.7163-.16105.2902-.55765.4406-.88506.3355z"/><path d="m22.3464 59.165c-.3368.1407-.7721.0162-.9715-.2777-.1993-.294-.0877-.6468.2491-.7875.3367-.1407.7721-.0162.9714.2777.1993.294.0878.6469-.249.7875z"/><path d="m32.4777-.419235c-.4093.3636413-1.0932.3966966-1.5264.073768-.4331-.322929-.4524-.880373-.0431-1.244013s1.0933-.3967 1.5264-.07377.4524.880374.0431 1.244015z"/><path d="m42.7205 6.86454c-.6293-.07692-1.018-.58737-.8674-1.13915.1505-.55179.7837-.93734 1.4129-.86042.6293.07691 1.018.58737.8674 1.13915-.1505.55178-.7837.93734-1.4129.86042z"/></g><path d="m29.7411 61.1298 1.1465-1.3378 1.1464-1.3379.9083 1.6632.9083 1.6631-2.0547-.3253z" fill="#34afec"/><path d="m6.33249 15.5509.88389-.3508.88389-.3508-.04258.789-.04257.789-.84132-.4382z" fill="#34afec"/><path d="m33.8943-.179091.9284.470552s-1.0197-1.18049-.1276-1.27226c1.2732-.130971.8028-.970771.8028-.970771l-.979-.49844s.1331.557-.9013.82827c-1.0779.28271.2767 1.442649.2767 1.442649z" fill="#fff"/><path d="m33.8943-.179091.9284.470552s-1.0197-1.18049-.1276-1.27226c1.2732-.130971.8028-.970771.8028-.970771l-.979-.49844s.1331.557-.9013.82827c-1.0779.28271.2767 1.442649.2767 1.442649z" fill="#e6bd00" fill-opacity=".2"/><path d="m4.84104 59.4403s-.51632.8949-1.68843.8036c-1.0275-.08-1.20214.2991-1.20214.2991s.94883.995 1.23593 1.9733c.21783.742-.24176 1.5849-.24176 1.5849s.32294-.47 1.80732-.614c.45718-.0443 1.2059.1019 1.2059.1019s.10516-1.2122-.09086-2.1166c-.19601-.9044-1.02596-2.0322-1.02596-2.0322z" fill="#fff"/><path d="m4.84104 59.4403s-.51632.8949-1.68843.8036c-1.0275-.08-1.20214.2991-1.20214.2991s.94883.995 1.23593 1.9733c.21783.742-.24176 1.5849-.24176 1.5849s.32294-.47 1.80732-.614c.45718-.0443 1.2059.1019 1.2059.1019s.10516-1.2122-.09086-2.1166c-.19601-.9044-1.02596-2.0322-1.02596-2.0322z" fill="#e6bd00" fill-opacity=".2"/><path d="m9.8604 31.0555s-.03236-.9568 1.1141-1.3854c1.005-.3757.9502-.7621.9502-.7621s-1.4574-.4096-2.28753-1.0897c-.62973-.5158-.68516-1.4056-.68516-1.4056s-.03132.5248-1.33402 1.2808c-.40123.2328-1.18408.4344-1.18408.4344s.59844 1.0408 1.3011 1.6994c.70266.6585 2.12539 1.2282 2.12539 1.2282z" fill="#fff"/><path d="m9.8604 31.0555s-.03236-.9568 1.1141-1.3854c1.005-.3757.9502-.7621.9502-.7621s-1.4574-.4096-2.28753-1.0897c-.62973-.5158-.68516-1.4056-.68516-1.4056s-.03132.5248-1.33402 1.2808c-.40123.2328-1.18408.4344-1.18408.4344s.59844 1.0408 1.3011 1.6994c.70266.6585 2.12539 1.2282 2.12539 1.2282z" fill="#e6bd00" fill-opacity=".2"/><path d="m16.8597 13.8966s-.8981-.3315-.8619-1.5549c.0318-1.0724-.3467-1.1676-.3467-1.1676s-.9298 1.1946-1.873 1.7063c-.7156.3882-1.5604.1034-1.5604.1034s.4741.2273.682 1.719c.064.4595-.0451 1.2605-.0451 1.2605s1.1897-.1609 2.0649-.5628c.8753-.4018 1.9402-1.5039 1.9402-1.5039z" fill="#ffc107"/><path d="m56.838 21.864s-.328-.8994.6287-1.6629c.8386-.6693.6664-1.0195.6664-1.0195s-1.5125.0633-2.5128-.3253c-.7588-.2948-1.0879-1.1233-1.0879-1.1233s.1333.5085-.8702 1.6318c-.309.3459-.9906.7807-.9906.7807s.8922.8034 1.7646 1.2112c.8725.4077 2.4018.5073 2.4018.5073z" fill="#ffc107"/><path d="m27.7117 9.4245s-.6619-.77715.1045-1.56362c.6718-.68942.3662-.98748.3662-.98748s-1.6049.21239-2.8142-.03523c-.9175-.18781-1.5562-.90092-1.5562-.90092s.3181.44476-.3749 1.56033c-.2135.3436-.7969.80549-.7969.80549s1.2356.63265 2.3141.91064c1.0784.278 2.7574.21079 2.7574.21079z" fill="#fff"/><path d="m27.7117 9.4245s-.6619-.77715.1045-1.56362c.6718-.68942.3662-.98748.3662-.98748s-1.6049.21239-2.8142-.03523c-.9175-.18781-1.5562-.90092-1.5562-.90092s.3181.44476-.3749 1.56033c-.2135.3436-.7969.80549-.7969.80549s1.2356.63265 2.3141.91064c1.0784.278 2.7574.21079 2.7574.21079z" fill="#e6bd00" fill-opacity=".2"/><path d="m17.042 5.17718s.4354-.92444 1.6089-.91519c1.0288.00814 1.1694-.38042 1.1694-.38042s-1.0303-.92212-1.4011-1.8735c-.2813-.72169.1022-1.590577.1022-1.590577s-.2801.489129-1.7436.735187c-.4508.07579-1.2081-.01741-1.2081-.01741s.0012 1.21094.2749 2.09533c.2738.88438 1.1974 1.94658 1.1974 1.94658z" fill="#34afec"/><path d="m46.6655 53.3569s.4354-.9245 1.6089-.9152c1.0287.0081 1.1693-.3804 1.1693-.3804s-1.0303-.9222-1.4011-1.8735c-.2813-.7217.1022-1.5906.1022-1.5906s-.2801.4891-1.7436.7352c-.4508.0758-1.2081-.0174-1.2081-.0174s.0012 1.2109.275 2.0953c.2737.8844 1.1974 1.9466 1.1974 1.9466z" fill="#34afec"/><path d="m13.0391 48.0834s.4353-.9244 1.6088-.9152c1.0288.0082 1.1694-.3804 1.1694-.3804s-1.0303-.9221-1.4011-1.8735c-.2813-.7217.1022-1.5906.1022-1.5906s-.2801.4892-1.7436.7352c-.4508.0758-1.2081-.0174-1.2081-.0174s.0012 1.211.275 2.0953c.2737.8844 1.1974 1.9466 1.1974 1.9466z" fill="#807ecc"/><path d="m13.0391 48.0834s.4353-.9244 1.6088-.9152c1.0288.0082 1.1694-.3804 1.1694-.3804s-1.0303-.9221-1.4011-1.8735c-.2813-.7217.1022-1.5906.1022-1.5906s-.2801.4892-1.7436.7352c-.4508.0758-1.2081-.0174-1.2081-.0174s.0012 1.211.275 2.0953c.2737.8844 1.1974 1.9466 1.1974 1.9466z" fill="#807ecc"/><path d="m31.2973 52.3776s-1.0215-.0262-1.4857-1.104c-.4069-.9449-.8192-.9171-.8192-.9171s-.429 1.3144-1.1505 2.037c-.5472.5482-1.497.5471-1.497.5471s.5605.0594 1.3752 1.2998c.2509.3821.4706 1.1128.4706 1.1128s1.108-.4888 1.8072-1.0956 1.2994-1.88 1.2994-1.88z" fill="url(#b)"/><path d="m37.5562 3.92718s-.7962.6404-1.8472.11816c-.9212-.45782-1.2178-.17009-1.2178-.17009s.5224 1.28019.4391 2.29787c-.0632.77199-.7885 1.38517-.7885 1.38517s.4661-.31704 1.8895.10267c.4385.12928 1.0784.5447 1.0784.5447s.5293-1.08914.6705-2.0041c.1412-.91497-.224-2.27438-.224-2.27438z" fill="url(#c)"/><path d="m51.2107 11.7587s-.963-.3417-1.07-1.5104c-.0938-1.02442-.4943-1.12587-.4943-1.12587s-.8156 1.11647-1.7256 1.57967c-.6903.3514-1.5929.0558-1.5929.0558s.5145.2303.9042 1.6623c.1201.441.1023 1.2038.1023 1.2038s1.2049-.121 2.0578-.481 1.8185-1.3843 1.8185-1.3843z" fill="#807ecc"/><path d="m51.2107 11.7587s-.963-.3417-1.07-1.5104c-.0938-1.02442-.4943-1.12587-.4943-1.12587s-.8156 1.11647-1.7256 1.57967c-.6903.3514-1.5929.0558-1.5929.0558s.5145.2303.9042 1.6623c.1201.441.1023 1.2038.1023 1.2038s1.2049-.121 2.0578-.481 1.8185-1.3843 1.8185-1.3843z" fill="#807ecc"/><path d="m2.8625 2.94136s1.03545.32409.88831 1.35277c-.12901.90176.31112 1.00083.31112 1.00083s1.2029-.95983 2.3636-1.34371c.88048-.29123 1.85668-.00914 1.85668-.00914s-.54208-.21509-.6612-1.482c-.03669-.3902.16073-1.05943.16073-1.05943s-1.42269.07613-2.49342.37085c-1.07073.29473-2.42582 1.16983-2.42582 1.16983z" fill="#fff"/><path d="m2.8625 2.94136s1.03545.32409.88831 1.35277c-.12901.90176.31112 1.00083.31112 1.00083s1.2029-.95983 2.3636-1.34371c.88048-.29123 1.85668-.00914 1.85668-.00914s-.54208-.21509-.6612-1.482c-.03669-.3902.16073-1.05943.16073-1.05943s-1.42269.07613-2.49342.37085c-1.07073.29473-2.42582 1.16983-2.42582 1.16983z" fill="#e6bd00" fill-opacity=".2"/></g></svg>