<svg xmlns="http://www.w3.org/2000/svg" width="24" height="24">
    <path fill-rule="evenodd" clip-rule="evenodd"
            d="M11.138 18.9381C20.3097 11.4159 21.6309 4.79365 21.6146 2.44562C19.2662 2.42849 12.6407 3.74608 5.12052 12.9206L7.7651 15.5652L9.18633 14.3965C9.50977 14.1306 9.94041 14.5586 9.67648 14.8836L8.51464 16.3147L11.138 18.9381ZM15.2069 17.3997C23.0363 9.79403 23.1324 3.78188 22.9182 1.88103C22.8736 1.4861 22.5747 1.18705 22.1798 1.1424C20.2782 0.92741 14.2623 1.02158 6.65603 8.85712C5.54616 8.96987 4.03194 9.4757 2.3027 10.9996C1.94298 11.3166 1.94348 11.8707 2.28251 12.2097L3.87584 13.8031L3.87648 13.8024L4.99478 14.9207C4.14479 15.0153 3.31435 15.3927 2.65666 16.0512C1.39242 17.3171 1.57235 18.4689 1.73029 19.48C1.84462 20.2119 1.94743 20.8701 1.48264 21.4443L1.47725 21.4509C1.43341 21.5045 1.38459 21.5574 1.33034 21.6095C1.24367 21.6928 1.14313 21.7742 1.02688 21.8537C0.710689 22.0698 0.732515 22.6066 1.10293 22.677C1.28661 22.7119 1.46601 22.7427 1.64122 22.7698C1.71192 22.7807 1.78195 22.791 1.85129 22.8007L1.86715 22.803C5.45224 23.3005 7.22564 22.1804 8.00577 21.4003C8.66388 20.7422 9.04086 19.9114 9.13515 19.0611L10.2604 20.1863L10.2603 20.1865L11.8536 21.7798C12.1926 22.1188 12.7467 22.1193 13.0637 21.7596C14.5906 20.0269 15.0954 18.5101 15.2069 17.3997ZM6.29983 16.2258L7.82868 17.7546C8.10821 18.6807 7.84196 19.7807 7.11412 20.5085C6.69529 20.9274 5.52283 21.8208 2.84445 21.6218C2.95595 21.3761 3.02986 21.1171 3.06879 20.8474L2.96807 19.1081C2.89513 18.6308 2.86688 18.3017 2.92722 17.9891C2.97992 17.716 3.11826 17.3716 3.54806 16.9413C4.27522 16.2132 5.3743 15.9466 6.29983 16.2258ZM14.0263 10.0363C14.9077 10.9177 16.3271 10.9274 17.1965 10.0579C18.066 9.1884 18.0564 7.76906 17.175 6.88769C16.2936 6.00632 14.8743 5.99667 14.0048 6.86615C13.1353 7.73563 13.145 9.15497 14.0263 10.0363ZM16.3985 9.26225C15.9638 9.69699 15.2543 9.69228 14.8137 9.25173C14.3732 8.81119 14.3685 8.10163 14.8032 7.66689C15.2379 7.23215 15.9475 7.23686 16.388 7.67741C16.8286 8.11795 16.8333 8.82751 16.3985 9.26225Z" fill="#33FF33"/>
</svg>
