<svg xmlns="http://www.w3.org/2000/svg" width="24" height="24">
        <path fill-rule="nonzero"
          d="M7 9.5h3a1 1 0 0 1 1 1v2a1 1 0 0 1-1 1H7a1 1 0 0 1-1-1v-2a1 1 0 0 1 1-1zm0 6h3a1 1 0 0 1 1 1v2a1 1 0 0 1-1 1H7a1 1 0 0 1-1-1v-2a1 1 0 0 1 1-1zm7-6h3a1 1 0 0 1 1 1v2a1 1 0 0 1-1 1h-3a1 1 0 0 1-1-1v-2a1 1 0 0 1 1-1zm0 6h3a1 1 0 0 1 1 1v2a1 1 0 0 1-1 1h-3a1 1 0 0 1-1-1v-2a1 1 0 0 1 1-1zM1.56 8.829A1 1 0 1 1 .44 7.17L10.323.503a3 3 0 0 1 3.356 0l9.881 6.668a1 1 0 1 1-1.118 1.658L12.559 2.16a1 1 0 0 0-1.118 0L1.559 8.829zM1.5 11a1 1 0 0 1 2 0v10a1 1 0 0 0 1 1h15a1 1 0 0 0 1-1V11a1 1 0 0 1 2 0v10a3 3 0 0 1-3 3h-15a3 3 0 0 1-3-3V11z" fill="#2e3436"/>
</svg>
