<svg xmlns="http://www.w3.org/2000/svg" width="24" height="24">
        <path fill-rule="evenodd" clip-rule="evenodd"
          d="M21.5328 12.7293C21.5328 9.10814 19.3937 5.98448 16.3081 4.55669C15.8069 4.32476 15.5203 3.76348 15.6949 3.2395C15.8694 2.71551 16.4382 2.42808 16.944 2.64977C20.8221 4.34939 23.5328 8.22164 23.5328 12.7293C23.5328 18.8044 18.6079 23.7293 12.5328 23.7293C6.45766 23.7293 1.53279 18.8044 1.53279 12.7293C1.53279 8.22208 4.243 4.35014 8.12043 2.65027C8.62624 2.42852 9.19508 2.71588 9.36966 3.23985C9.54423 3.76382 9.25775 4.32512 8.75655 4.55711C5.67145 5.9851 3.53279 9.1085 3.53279 12.7293C3.53279 17.6998 7.56223 21.7293 12.5328 21.7293C17.5034 21.7293 21.5328 17.6998 21.5328 12.7293Z" fill="#DD0000"/>
    <path
      d="M11.5 2.27075C11.5 1.71847 11.9477 1.27075 12.5 1.27075C13.0523 1.27075 13.5 1.71847 13.5 2.27075V12.2708C13.5 12.823 13.0523 13.2708 12.5 13.2708C11.9477 13.2708 11.5 12.823 11.5 12.2708V2.27075Z" fill="#DD0000"/>
</svg>
