<svg xmlns="http://www.w3.org/2000/svg" width="24" height="24">
        <path fill-rule="evenodd" clip-rule="evenodd"
          d="M6.75001 3C6.3358 3 6.00001 3.33579 6.00001 3.75V5.05794H4.50001C2.84316 5.05794 1.50001 6.32214 1.50001 7.88161V9.9L2.25001 9.9V9.90518H21V19.1763C21 19.956 20.3284 20.5881 19.5 20.5881H8.21V20.58H5.71C4.16913 20.58 2.92 19.3309 2.92 17.79C2.92 16.2491 4.16913 15 5.71 15H12.9629L12.0645 15.8984C11.7404 16.2225 11.7404 16.748 12.0645 17.0722C12.3886 17.3963 12.9142 17.3963 13.2383 17.0722L15.4102 14.9003C15.7734 14.5371 15.7734 13.9482 15.4102 13.585L13.2383 11.4131C12.9142 11.089 12.3886 11.089 12.0645 11.4131C11.7404 11.7372 11.7404 12.2628 12.0645 12.5869L13.0576 13.58H5.71C3.38488 13.58 1.5 15.4649 1.5 17.79C1.5 20.1151 3.38488 22 5.71 22L6.50001 22L8.21 22H19.5C21.1568 22 22.5 20.7358 22.5 19.1763L22.5 9.90518V8.39333L22.5 7.88161C22.5 6.32214 21.1568 5.05794 19.5 5.05794H18V3.75C18 3.33579 17.6642 3 17.25 3C16.8358 3 16.5 3.33579 16.5 3.75V5.05794H7.50001V3.75C7.50001 3.33579 7.16423 3 6.75001 3ZM16.5 6.78555V6.46976H7.50001V6.78555C7.50001 7.19977 7.16423 7.53555 6.75001 7.53555C6.3358 7.53555 6.00001 7.19977 6.00001 6.78555V6.46976H4.50001C3.67158 6.46976 3.00001 7.10186 3.00001 7.8816V8.39333H21V7.8816C21 7.10186 20.3284 6.46976 19.5 6.46976H18V6.78555C18 7.19977 17.6642 7.53555 17.25 7.53555C16.8358 7.53555 16.5 7.19977 16.5 6.78555Z" fill="#000000"/>
</svg>
