<svg xmlns="http://www.w3.org/2000/svg" width="24" height="24">
        <path fill-rule="nonzero"
          d="M14.145 18a3.503 3.503 0 0 1 3.355-2.5 3.503 3.503 0 0 1 3.355 2.5H23a1 1 0 0 1 0 2h-2.145a3.503 3.503 0 0 1-3.355 2.5 3.503 3.503 0 0 1-3.355-2.5H1a1 1 0 0 1 0-2h13.145zm-11-7A3.503 3.503 0 0 1 6.5 8.5 3.503 3.503 0 0 1 9.855 11H23a1 1 0 0 1 0 2H9.855A3.503 3.503 0 0 1 6.5 15.5 3.503 3.503 0 0 1 3.145 13H1a1 1 0 0 1 0-2h2.145zm17.71-7H23a1 1 0 0 1 0 2h-2.145A3.503 3.503 0 0 1 17.5 8.5 3.503 3.503 0 0 1 14.145 6H1a1 1 0 1 1 0-2h13.145A3.503 3.503 0 0 1 17.5 1.5 3.503 3.503 0 0 1 20.855 4zM17.5 3c-1.104 0-2 .896-2 2s.896 2 2 2 2-.896 2-2-.896-2-2-2zm-11 7c-1.104 0-2 .896-2 2s.896 2 2 2 2-.896 2-2-.896-2-2-2zm11 7c-1.104 0-2 .896-2 2s.896 2 2 2 2-.896 2-2-.896-2-2-2z" fill="#2e3436"/>
</svg>
