<?xml version="1.0" encoding="UTF-8" standalone="no"?>
<svg
   width="119.055"
   height="121.72"
   viewBox="0 0 119.055 121.72"
   version="1.1"
   id="svg147"
   sodipodi:docname="tadoLogosized.svg"
   inkscape:version="1.1.2 (0a00cf5339, 2022-02-04)"
   xmlns:inkscape="http://www.inkscape.org/namespaces/inkscape"
   xmlns:sodipodi="http://sodipodi.sourceforge.net/DTD/sodipodi-0.dtd"
   xmlns="http://www.w3.org/2000/svg"
   xmlns:svg="http://www.w3.org/2000/svg">
  <defs
     id="defs151" />
  <sodipodi:namedview
     id="namedview149"
     pagecolor="#ffffff"
     bordercolor="#666666"
     borderopacity="1.0"
     inkscape:pageshadow="2"
     inkscape:pageopacity="0.0"
     inkscape:pagecheckerboard="0"
     showgrid="false"
     height="120px"
     fit-margin-top="40"
     fit-margin-bottom="40"
     fit-margin-left="0"
     fit-margin-right="0"
     inkscape:zoom="4.5994794"
     inkscape:cx="83.813833"
     inkscape:cy="77.291356"
     inkscape:window-width="2539"
     inkscape:window-height="1141"
     inkscape:window-x="994"
     inkscape:window-y="251"
     inkscape:window-maximized="0"
     inkscape:current-layer="svg147" />
  <path
     fill="#FFFFFF"
     fill-rule="nonzero"
     d="M 25.321,54.086 H 9.372 v 19.222 a 2.804,2.804 0 0 0 2.817,2.802 h 4.695 l -0.006,4.683 h -5.594 c -4.203,0 -7.53,-3.333 -7.53,-7.49 V 54.086 H 0 v -4.684 h 3.802 v -7.508 l 5.574,-1.876 v 9.386 h 15.945 v 4.683 z m 1.867,-4.69 H 37.51 c 4.183,0 7.491,3.358 7.491,7.252 v 24.128 h -5.62 v -2.324 c 0,0 -1.852,2.82 -6.584,2.82 -5.62,0 -11.23,-3.865 -11.23,-10.359 0,-6.5 5.615,-10.316 11.243,-10.316 3.028,0 6.556,0.006 6.556,0.006 v -3.829 c 0,-1.308 -0.965,-2.682 -2.722,-2.682 h -9.456 v -4.695 z m 12.18,15.927 H 32.81 c -1.867,0 -5.628,1.452 -5.628,5.627 0,4.69 3.8,5.627 5.621,5.627 4.72,0 6.565,-2.79 6.565,-5.269 v -5.984 z m 51.62,-15.914 c 8.838,0 14.03,6.822 14.03,16.057 0,9.51 -5.164,16.254 -14.03,16.254 -8.968,0 -14.064,-6.774 -14.064,-16.254 0,-9.266 5.096,-16.057 14.065,-16.057 z m 0,27.622 c 5.61,0 8.445,-5.938 8.445,-11.476 0,-5.555 -2.886,-11.409 -8.444,-11.409 -5.636,0 -8.465,5.854 -8.465,11.44 0,5.663 2.877,11.445 8.465,11.445 z m -16,-11.422 v -25.59 l -5.627,-0.008 v 12.183 c -2.27,-1.697 -4.689,-2.79 -8.366,-2.79 -8.998,0 -14.053,6.768 -14.053,16.206 0,8.895 5.055,16.11 14.053,16.11 8.837,0 13.976,-7.239 13.993,-16.11 z m -13.992,11.44 c -6.107,0 -8.413,-5.896 -8.413,-11.44 0,-5.61 2.772,-11.487 8.413,-11.487 5.66,0 8.343,5.878 8.343,11.487 0,5.544 -2.734,11.44 -8.343,11.44 z M 111.547,40 c -4.149,0 -7.515,3.363 -7.515,7.509 a 7.5115,7.5115 0 1 0 15.023,0 A 7.51,7.51 0 0 0 111.547,40 Z m 0,13.14 a 5.631,5.631 0 0 1 -5.633,-5.632 5.636,5.636 0 0 1 5.633,-5.633 5.633,5.633 0 0 1 5.628,5.633 5.629,5.629 0 0 1 -5.628,5.633 z"
     id="path145" />
</svg>
