<svg width="76" height="67" viewBox="0 0 76 67" fill="none" xmlns="http://www.w3.org/2000/svg">
  <path fill-rule="evenodd" clip-rule="evenodd" d="M25 31.541V51.7559C25 53.0576 26.06 54 27.3444 54H40.1807V41.6555C40.1807 38.4487 42.8104 35.8491 46.0172 35.8491C49.224 35.8491 51.8537 38.4487 51.8537 41.6555V54H64.625C65.9096 54 67 53.0576 67 51.7559V31.541L46.017 13L25 31.541Z" fill="#376595"/>
  <path fill-rule="evenodd" clip-rule="evenodd" d="M65.9991 16.5261V5.65864H58V10L45.9995 0L17.149 24.2746C15.8131 25.3986 15.613 27.4274 16.702 28.806C17.7916 30.1847 19.7575 30.3908 21.0928 29.2669L45.9995 7.62175L70.9062 29.2669C71.4854 29.7545 72.1829 29.9916 72.8763 29.9916C73.7817 29.9916 74.6801 29.5867 75.297 28.806C76.386 27.4274 76.1859 25.3986 74.85 24.2746L65.9991 16.5261Z" fill="#376595"/>
  <mask id="mask0" mask-type="alpha" maskUnits="userSpaceOnUse" x="16" y="0" width="60" height="31">
    <path fill-rule="evenodd" clip-rule="evenodd" d="M66.0001 16.6423V5.62491H58V10L46.0005 0.116211L17.1499 24.3909C15.8141 25.5148 15.6139 27.5436 16.703 28.9222C17.7926 30.3009 19.7585 30.507 21.0938 29.3831L46.0005 7.73796L70.9072 29.3831C71.4864 29.8708 72.1838 30.1078 72.8773 30.1078C73.7827 30.1078 74.681 29.7029 75.2979 28.9222C76.387 27.5436 76.1868 25.5148 74.851 24.3909L66.0001 16.6423Z" fill="#CC8700"/>
  </mask>
  <g mask="url(#mask0)">
    <path d="M57.2108 7.50165C55.4268 7.58267 54.5606 4.34397 54.687 2.90385L65.0415 -0.741218L67.5011 8.41155C66.8051 8.51322 65.1665 7.18128 64.1994 7.32254C62.9906 7.49912 64.3073 9.24287 62.3881 9.52322C61.1521 9.70377 62.4384 7.5955 60.5899 7.00803C59.5012 6.66201 59.4407 7.40038 57.2108 7.50165Z" fill="#AFC1D5"/>
  </g>
  <mask id="mask1" mask-type="alpha" maskUnits="userSpaceOnUse" x="16" y="0" width="60" height="30">
    <path fill-rule="evenodd" clip-rule="evenodd" d="M65.9991 16.5307V5.51024H58V8V10L45.9995 0L17.149 24.2814C15.8131 25.4056 15.613 27.435 16.702 28.8141C17.7916 30.1931 19.7575 30.3993 21.0928 29.275L45.9995 7.62388L70.9062 29.275C71.4854 29.7629 72.1829 30 72.8763 30C73.7817 30 74.6801 29.5949 75.297 28.8141C76.386 27.435 76.1859 25.4056 74.85 24.2814L65.9991 16.5307Z" fill="white"/>
  </mask>
  <g mask="url(#mask1)">
    <path d="M15.5 30C15.5 30 14.4563 27.2162 14.5004 25.5L46.0001 0L58 10L68.1338 18.3304L78.431 22.819C79.2231 24.6671 74.742 30.1009 72.2263 28.1657C71.3682 27.5056 72.2263 24.7993 70.5101 23.1491C68.4197 21.1392 66.9456 22.819 63.9093 20.9709C60.8729 19.1227 63.5132 17.8026 61.665 15.2943C59.8168 12.786 58.1534 14.9265 56.8464 14.3041C54.1586 13.0242 55.4602 10.2776 53.282 8.69338C51.8297 7.63716 50.2456 9.61758 48.8594 7.63716C47.6482 5.90668 48.5267 3.62698 46.4832 3.28067C43.916 2.84561 44.965 5.39299 43.1168 7.24129C41.2685 9.08959 40.9763 6.50706 38.5622 8.23141C37.176 9.22153 37.9021 11.0695 36.714 12.7858C35.5258 14.502 34.9978 11.8617 32.4895 12.7858C29.9812 13.7099 32.0934 16.8782 30.2452 18.3304C28.397 19.7826 28.1329 17.2743 26.4167 18.3304C24.7005 19.3865 26.1527 21.3668 24.4365 22.819C22.7203 24.2712 23.1163 22.4229 21.1361 22.819C19.1559 23.215 20.014 25.9215 19.3539 27.5057C18.6938 29.0899 18.5364 30 15.5 30Z" fill="#AFC1D5"/>
  </g>
  <path d="M70.2305 54H21.2364C18.4879 54 18.0297 48.1831 21.2364 48.1831H28.5627C39.5519 42.8136 48.7097 45.4984 51.4571 46.8407C53.7465 44.156 55.4255 44.6034 57.4097 45.0509C60.0044 42.9628 66.2927 39.8604 70.6884 44.156C75.0842 48.4516 72.2147 52.5085 70.2305 54Z" fill="#AFC1D5"/>
</svg>
